<svg width="16" height="14" viewBox="0 0 16 14" fill="none" xmlns="http://www.w3.org/2000/svg">
<path d="M0.75 0C0.335786 0 0 0.335786 0 0.75C0 1.16421 0.335786 1.5 0.75 1.5H14.75C15.1642 1.5 15.5 1.16421 15.5 0.75C15.5 0.335786 15.1642 0 14.75 0H0.75Z" fill="#FAFAFA"/>
<path d="M0.75 6C0.335786 6 0 6.33579 0 6.75C0 7.16421 0.335786 7.5 0.75 7.5H6.75C7.16421 7.5 7.5 7.16421 7.5 6.75C7.5 6.33579 7.16421 6 6.75 6H0.75Z" fill="#FAFAFA"/>
<path d="M0.75 12C0.335786 12 0 12.3358 0 12.75C0 13.1642 0.335786 13.5 0.75 13.5H14.75C15.1642 13.5 15.5 13.1642 15.5 12.75C15.5 12.3358 15.1642 12 14.75 12H0.75Z" fill="#FAFAFA"/>
</svg>
